<?xml version="1.0" standalone="no"?>
<!DOCTYPE svg PUBLIC "-//W3C//DTD SVG 20010904//EN"
 "http://www.w3.org/TR/2001/REC-SVG-20010904/DTD/svg10.dtd">
<svg version="1.0" xmlns="http://www.w3.org/2000/svg"
 width="820.000000pt" height="304.000000pt" viewBox="0 0 820.000000 304.000000"
 preserveAspectRatio="xMidYMid meet">

<g transform="translate(0.000000,304.000000) scale(0.100000,-0.100000)"
fill="#000000" stroke="none">
<path d="M2934 2827 c-426 -291 -905 -446 -1388 -447 -82 0 -147 -2 -144 -5 2
-3 63 -12 134 -20 403 -47 814 29 1256 231 93 43 104 46 166 42 47 -3 92 -15
152 -40 279 -118 416 -173 562 -227 l163 -60 110 5 c145 7 151 10 90 41 -27
14 -265 142 -527 284 -262 143 -478 259 -480 259 -2 0 -44 -29 -94 -63z"/>
<path d="M750 2239 c-166 -83 -385 -444 -607 -999 -147 -366 -156 -405 -115
-486 51 -100 159 -140 258 -95 62 28 87 68 178 276 104 239 107 244 294 573
85 150 164 278 175 283 30 16 61 -5 118 -81 91 -121 237 -430 364 -770 66
-176 83 -200 149 -200 51 0 86 31 86 74 0 43 -247 858 -291 960 -90 209 -230
382 -361 446 -92 44 -183 51 -248 19z"/>
<path d="M3965 2253 c-90 -8 -247 -35 -355 -61 -109 -26 -112 -27 -65 -29 567
-27 711 -50 1230 -198 362 -104 511 -128 785 -128 191 0 346 19 535 66 l130
31 -225 12 c-425 23 -622 52 -920 135 -466 130 -554 149 -754 168 -103 10
-271 12 -361 4z"/>
<path d="M6705 2151 c-105 -5 -114 -7 -70 -14 28 -4 66 -7 85 -8 l35 0 -40
-14 c-40 -15 -61 -13 -102 7 -22 11 -73 4 -73 -10 0 -4 15 -6 34 -4 18 2 37
-1 40 -7 4 -6 25 -11 47 -11 21 0 39 -4 39 -10 0 -14 -73 -13 -87 1 -8 8 -14
6 -22 -9 -9 -17 -7 -21 12 -26 34 -9 56 -6 32 4 -15 6 -9 9 25 8 38 0 41 -1
20 -9 -21 -7 -20 -8 10 -4 19 2 128 9 241 16 369 22 575 -15 783 -142 41 -26
47 -27 31 -9 -62 69 -219 160 -335 193 -152 44 -426 63 -705 48z m152 -7 c-3
-3 -12 -4 -19 -1 -8 3 -5 6 6 6 11 1 17 -2 13 -5z m-92 -74 c4 -6 -7 -10 -25
-10 -18 0 -29 4 -25 10 3 6 15 10 25 10 10 0 22 -4 25 -10z"/>
<path d="M6413 2133 c9 -2 23 -2 30 0 6 3 -1 5 -18 5 -16 0 -22 -2 -12 -5z"/>
<path d="M6540 2069 c0 -5 5 -7 10 -4 6 3 10 8 10 11 0 2 -4 4 -10 4 -5 0 -10
-5 -10 -11z"/>
<path d="M6533 2033 c9 -2 23 -2 30 0 6 3 -1 5 -18 5 -16 0 -22 -2 -12 -5z"/>
<path d="M6378 2023 c12 -2 30 -2 40 0 9 3 -1 5 -23 4 -22 0 -30 -2 -17 -4z"/>
<path d="M6319 1781 c-128 -70 -301 -375 -473 -831 -51 -134 -55 -175 -21
-226 23 -36 74 -64 116 -64 58 0 99 35 139 118 34 70 36 73 65 68 80 -15 228
-18 310 -7 134 18 234 40 277 62 20 10 39 19 41 19 2 0 17 -35 32 -77 15 -43
35 -86 43 -95 30 -36 112 -12 112 32 0 31 -185 632 -215 696 -62 136 -156 250
-242 294 -60 31 -139 35 -184 11z m199 -346 c17 -19 49 -66 72 -105 46 -79
133 -270 127 -277 -3 -2 -44 1 -93 8 -96 13 -273 1 -372 -26 -37 -9 -52 -10
-52 -2 0 6 55 107 121 224 135 238 141 243 197 178z"/>
<path d="M2837 1763 c-9 -17 -19 -89 -25 -188 -9 -124 -18 -184 -41 -266 -70
-245 -139 -320 -241 -258 -54 33 -150 138 -200 218 -108 173 -196 262 -276
277 -54 10 -123 -29 -152 -88 -49 -98 -82 -338 -82 -592 0 -159 1 -165 22
-180 49 -35 138 -2 138 51 0 79 44 350 59 366 5 4 43 -45 86 -110 103 -155
218 -272 299 -302 80 -30 230 -40 272 -18 92 48 186 227 213 407 20 131 33
349 30 490 -3 124 -7 150 -25 180 -26 45 -58 51 -77 13z"/>
<path d="M8086 1756 c-9 -20 -16 -60 -16 -94 0 -219 -83 -539 -157 -605 -36
-32 -88 -33 -132 -4 -67 45 -140 127 -226 258 -91 136 -143 190 -211 221 -77
33 -155 3 -192 -75 -47 -100 -82 -360 -82 -608 0 -141 1 -149 22 -163 26 -19
71 -21 100 -5 26 14 48 68 48 121 0 82 43 308 58 308 4 0 20 -23 35 -50 46
-82 169 -241 225 -292 29 -25 72 -56 96 -68 83 -40 242 -52 303 -24 65 32 142
159 182 304 44 156 71 646 42 735 -27 80 -68 98 -95 41z"/>
<path d="M3263 1768 c-7 -8 -24 -71 -37 -141 -72 -362 -75 -722 -8 -904 l18
-48 77 -3 c99 -4 286 20 413 53 198 52 344 147 401 262 23 48 27 68 26 137 -3
288 -150 505 -401 591 -141 49 -464 84 -489 53z m422 -247 c146 -52 235 -177
235 -330 -1 -170 -158 -291 -411 -317 -64 -6 -66 -6 -86 22 -54 76 -66 203
-33 362 23 114 75 272 93 284 18 13 141 0 202 -21z"/>
<path d="M5350 1730 c-12 -12 -25 -32 -30 -46 -18 -46 -11 -233 15 -399 14
-88 28 -208 31 -267 l7 -106 -41 -13 c-52 -15 -106 -2 -214 52 -43 22 -95 41
-115 42 -37 2 -37 2 -65 -68 -37 -94 -36 -114 9 -158 97 -97 283 -131 437 -80
34 11 68 33 107 72 48 47 61 68 80 126 30 96 30 280 -1 450 -12 66 -30 170
-41 230 -10 61 -24 122 -30 136 -20 50 -111 67 -149 29z"/>
<path d="M4423 1728 c-11 -14 -69 -996 -60 -1005 4 -3 41 -14 84 -24 93 -22
221 -25 248 -5 49 36 31 293 -56 781 -34 190 -38 198 -123 240 -56 28 -79 31
-93 13z"/>
<path d="M875 1182 c-105 -35 -186 -149 -171 -240 16 -103 155 -130 317 -63
107 44 159 107 159 189 0 107 -154 164 -305 114z"/>
</g>
</svg>
